<svg width="40" height="40" viewBox="0 0 40 40" fill="none" xmlns="http://www.w3.org/2000/svg">
<path fill-rule="evenodd" clip-rule="evenodd" d="M17.144 1.64997C18.912 0.62921 21.0903 0.62921 22.8583 1.64997L34.4645 8.35082C36.2325 9.37158 37.3217 11.258 37.3217 13.2995V26.7013C37.3217 28.7428 36.2325 30.6292 34.4645 31.65L22.8583 38.3508C21.0903 39.3716 18.912 39.3716 17.144 38.3508L5.53781 31.65C3.7698 30.6292 2.68066 28.7428 2.68066 26.7013V13.2995C2.68066 11.258 3.7698 9.37158 5.53781 8.35082L17.144 1.64997Z" fill="#17B38A"/>
<path fill-rule="evenodd" clip-rule="evenodd" d="M12.2559 25.242L19.6589 32.6447L27.1089 25.1947L24.6399 22.7257L19.6881 27.6777L17.2256 25.2155L22.1774 20.2635L19.7061 17.7917L12.2559 25.242Z" fill="white"/>
<path fill-rule="evenodd" clip-rule="evenodd" d="M19.7438 7.82532L9.81201 17.7571L9.84551 22.6766L19.699 12.8233L29.5915 22.7158L29.609 17.6906L19.7438 7.82532Z" fill="white"/>
</svg>
